<?xml version="1.0" encoding="utf-8"?>
<!-- Generator: Adobe Illustrator 19.0.0, SVG Export Plug-In . SVG Version: 6.00 Build 0)  -->
<svg version="1.1" id="Capa_1" xmlns="http://www.w3.org/2000/svg" xmlns:xlink="http://www.w3.org/1999/xlink" x="0px" y="0px"
	 viewBox="0 0 125 175" style="enable-background:new 0 0 125 175;" xml:space="preserve">
<style type="text/css">
	.st0{fill:#232323;}
	.st1{fill:#FFFFFF;}
</style>
<g id="isotipo_1_">
	<path id="boca_1_" class="st0" d="M68.6,171.4c17.2-1.7,17.2-29.6,17.2-29.6c-12.4,11.5-40.7,12.4-40.7,12.4S51.7,173,68.6,171.4z"
		/>
	<g id="ojos_1_">
		<path id="XMLID_390_" class="st0" d="M103,88.6L66.2,103h-5.6H28.1c-1.8,0-3.3,1.7-3.3,3.5s1.5,3.5,3.3,3.5h11.2
			c-0.5,1-0.8,1.7-0.8,2.8c0,3.5,2.9,6.3,6.4,6.3s6.4-2.7,6.4-6.2c0-1.1-0.3-1.8-0.8-2.8h10h5.6l39.5-13.7c1.6-0.5,2.7-2.2,2.7-3.9
			C108.4,89.7,105.6,87.6,103,88.6z"/>
		<circle id="XMLID_371_" class="st0" cx="87.8" cy="112.5" r="6.4"/>
	</g>
	<path id="lentes_1_" class="st1" d="M124.4,96.2c0-2-1.7-4.2-3.7-4.2H81.3c-3.2,0-6.1,1.8-8.2,4.1c-2.1,2.3-3,5.5-2.7,8.6l0.1,1.6
		h-0.3c-2.5-0.6-5.1-0.5-7.6,0.1l-0.3,0.1l0.1-1.5c0.3-3.1-0.6-6.6-2.7-8.9s-5-4.2-8.3-4.2H12.1c-2,0-3.7,2.1-3.7,4.2
		c0,1.8,1.4,3.6,3.2,3.9l0.3,0.2l-0.1,0.3c-0.5,1.4-0.6,3-0.5,4.5c0.4,4.4,0.8,8.8,1.2,12.9c0.6,6.3,6,12.5,11.8,13.5
		c8.3,1.4,17,1.4,25.3,0c5.8-1,11.2-7.2,11.8-13.5l0.3-2.9l0.1-0.1c2.8-2,6.7-2,9.5-0.2l0.1,0.1l0.3,3.1c0.6,6.3,6,12.5,11.8,13.5
		c4.2,0.7,8.4,1.1,12.6,1.1s8.5-0.4,12.7-1.1c5.9-1.1,11.2-7.1,11.8-13.5c0.4-4.3,0.8-8.7,1.2-12.9c0.1-1.5,0-3-0.5-4.5l-0.1-0.2
		l0.2-0.3C123,99.8,124.4,98,124.4,96.2z M55,104.2L55,104.2c-0.3,3.8-0.7,7.9-1.2,13c-0.3,3-3.1,6.5-5.7,6.9
		c-7.4,1.3-15.3,1.3-22.7,0c-2.6-0.5-5.5-3.9-5.7-6.9c-0.4-4.2-0.8-8.6-1.2-13c-0.1-1.1,0.2-2.1,0.9-2.8c0.7-0.8,1.7-1.4,2.8-1.4
		h29.1c1.2,0,2.2,0.6,2.9,1.4C54.9,102.1,55.1,103.1,55,104.2z M114.1,105c-0.3,3.7-0.7,7.7-1.1,12.2c-0.3,3.1-3,6.4-5.7,6.9
		c-7.5,1.3-15.3,1.3-22.7,0c-2.6-0.5-5.5-3.9-5.7-6.9c-0.5-5.1-0.8-9.2-1.2-12.9c-0.1-1.1,0.2-2.2,0.9-2.9c0.7-0.8,1.7-1.4,2.8-1.4
		h29.1c1.1,0,2.2,0.6,2.8,1.4c0.7,0.7,1,1.9,0.9,3L114.1,105z"/>
	<path id="pelo_1_" class="st0" d="M110.1,12.2c-0.8-1.5-3.2-0.9-3.2,0.8c-0.2,14.9-7.6,20-17.7,20c5-1.4,8.6-4.9,9.4-11.5
		c0.1-0.6-0.8-0.7-0.9-0.2c-3,10.2-14.4,10.7-26.6,7.9c-19.3-7-39.3-21-39.3-21S6.4-7.3,1.1,18C-3,37.6,8.4,68.6,13.7,81.4
		c0.6,1.4,2.7,1.1,2.8-0.4c5.8-60.1,78.2,43.5,101.6,6.2C134,61.7,117.8,26.3,110.1,12.2z"/>
</g>
</svg>
